<svg width="534" height="236" viewBox="0 0 534 236" fill="none" xmlns="http://www.w3.org/2000/svg">
<path d="M43.9988 117.372H83.297V136.338H20.0781V17.0764H43.9988V117.372ZM110.632 30.4036C106.418 30.4036 102.886 29.0937 100.039 26.4738C97.305 23.74 95.9381 20.3797 95.9381 16.3929C95.9381 12.4061 97.305 9.10282 100.039 6.48294C102.886 3.74915 106.418 2.38226 110.632 2.38226C114.847 2.38226 118.321 3.74915 121.055 6.48294C123.902 9.10282 125.326 12.4061 125.326 16.3929C125.326 20.3797 123.902 23.74 121.055 26.4738C118.321 29.0937 114.847 30.4036 110.632 30.4036ZM122.422 41.6805V136.338H98.501V41.6805H122.422ZM139.904 88.8383C139.904 79.384 141.841 71.0117 145.714 63.7216C149.7 56.3176 155.054 50.5653 161.775 46.4646C168.495 42.3639 175.899 40.3136 183.987 40.3136C190.707 40.3136 196.63 41.6235 201.756 44.2434C206.996 46.7494 211.211 49.9957 214.4 53.9825V41.6805H238.492V181.445H214.4V123.352C211.211 127.453 206.939 130.87 201.585 133.604C196.232 136.338 190.195 137.705 183.474 137.705C175.5 137.705 168.153 135.654 161.433 131.554C154.826 127.339 149.586 121.53 145.714 114.126C141.841 106.722 139.904 98.2927 139.904 88.8383ZM214.4 89.0092C214.4 83.1999 213.204 78.1879 210.812 73.9733C208.42 69.7588 205.287 66.5693 201.415 64.4051C197.656 62.2408 193.612 61.1587 189.283 61.1587C185.069 61.1587 181.025 62.2408 177.152 64.4051C173.393 66.5693 170.318 69.7588 167.926 73.9733C165.534 78.074 164.338 83.029 164.338 88.8383C164.338 94.6476 165.534 99.7165 167.926 104.045C170.318 108.26 173.393 111.449 177.152 113.613C181.025 115.778 185.069 116.86 189.283 116.86C193.612 116.86 197.656 115.778 201.415 113.613C205.287 111.449 208.42 108.26 210.812 104.045C213.204 99.8304 214.4 94.8185 214.4 89.0092ZM351.215 41.6805V136.338H327.123V124.378C324.048 128.478 320.004 131.725 314.992 134.117C310.094 136.395 304.741 137.534 298.931 137.534C291.527 137.534 284.978 135.996 279.282 132.921C273.587 129.731 269.087 125.118 265.784 119.081C262.595 112.93 261 105.64 261 97.2105V41.6805H284.921V93.7933C284.921 101.311 286.8 107.121 290.559 111.221C294.318 115.208 299.444 117.201 305.937 117.201C312.543 117.201 317.726 115.208 321.485 111.221C325.244 107.121 327.123 101.311 327.123 93.7933V41.6805H351.215ZM386.948 30.4036C382.733 30.4036 379.202 29.0937 376.354 26.4738C373.62 23.74 372.254 20.3797 372.254 16.3929C372.254 12.4061 373.62 9.10282 376.354 6.48294C379.202 3.74915 382.733 2.38226 386.948 2.38226C391.162 2.38226 394.636 3.74915 397.37 6.48294C400.218 9.10282 401.642 12.4061 401.642 16.3929C401.642 20.3797 400.218 23.74 397.37 26.4738C394.636 29.0937 391.162 30.4036 386.948 30.4036ZM398.737 41.6805V136.338H374.817V41.6805H398.737ZM416.22 88.6675C416.22 79.0992 418.099 70.6131 421.858 63.209C425.731 55.805 430.971 50.1096 437.578 46.1229C444.184 42.1361 451.531 40.1427 459.619 40.1427C465.77 40.1427 471.636 41.5096 477.217 44.2434C482.799 46.8633 487.241 50.3944 490.545 54.8368V9.90018H514.807V136.338H490.545V122.327C487.583 126.997 483.425 130.756 478.072 133.604C472.718 136.452 466.51 137.876 459.448 137.876C451.474 137.876 444.184 135.825 437.578 131.725C430.971 127.624 425.731 121.872 421.858 114.468C418.099 106.95 416.22 98.3496 416.22 88.6675ZM490.716 89.0092C490.716 83.1999 489.576 78.2449 487.298 74.1442C485.02 69.9296 481.945 66.7402 478.072 64.5759C474.199 62.2978 470.041 61.1587 465.599 61.1587C461.156 61.1587 457.056 62.2408 453.297 64.4051C449.538 66.5693 446.462 69.7588 444.07 73.9733C441.792 78.074 440.653 82.9721 440.653 88.6675C440.653 94.3628 441.792 99.3748 444.07 103.703C446.462 107.918 449.538 111.164 453.297 113.442C457.17 115.721 461.27 116.86 465.599 116.86C470.041 116.86 474.199 115.778 478.072 113.613C481.945 111.335 485.02 108.146 487.298 104.045C489.576 99.8304 490.716 94.8185 490.716 89.0092Z" fill="black"/>
<path d="M338.094 177.096V182.153H317.386V198.214H334.199V203.272H317.386V224.732H311.166V177.096H338.094ZM351.825 174.157V224.732H345.606V174.157H351.825ZM395.64 187.279V224.732H389.421V219.196C388.236 221.11 386.573 222.613 384.432 223.707C382.336 224.755 380.012 225.279 377.461 225.279C374.545 225.279 371.925 224.686 369.601 223.502C367.277 222.272 365.432 220.449 364.065 218.034C362.744 215.619 362.083 212.681 362.083 209.218V187.279H368.234V208.398C368.234 212.088 369.168 214.936 371.036 216.941C372.904 218.9 375.456 219.88 378.691 219.88C382.017 219.88 384.637 218.854 386.551 216.804C388.464 214.754 389.421 211.769 389.421 207.851V187.279H395.64ZM413.728 192.405V214.48C413.728 216.303 414.115 217.601 414.89 218.376C415.664 219.105 417.008 219.47 418.922 219.47H423.501V224.732H417.897C414.434 224.732 411.837 223.935 410.106 222.34C408.374 220.745 407.508 218.125 407.508 214.48V192.405H402.656V187.279H407.508V177.848H413.728V187.279H423.501V192.405H413.728ZM438.623 192.405V214.48C438.623 216.303 439.01 217.601 439.785 218.376C440.559 219.105 441.903 219.47 443.817 219.47H448.396V224.732H442.792C439.329 224.732 436.732 223.935 435.001 222.34C433.269 220.745 432.404 218.125 432.404 214.48V192.405H427.551V187.279H432.404V177.848H438.623V187.279H448.396V192.405H438.623ZM490.104 204.57C490.104 205.755 490.036 207.008 489.899 208.329H459.964C460.192 212.02 461.445 214.913 463.723 217.009C466.047 219.059 468.849 220.085 472.129 220.085C474.818 220.085 477.05 219.47 478.827 218.239C480.65 216.964 481.926 215.278 482.655 213.182H489.352C488.35 216.781 486.345 219.72 483.338 221.998C480.331 224.231 476.595 225.347 472.129 225.347C468.576 225.347 465.386 224.55 462.561 222.955C459.782 221.36 457.595 219.105 456 216.189C454.405 213.227 453.608 209.81 453.608 205.937C453.608 202.064 454.383 198.67 455.932 195.754C457.481 192.838 459.645 190.605 462.424 189.056C465.249 187.461 468.484 186.664 472.129 186.664C475.683 186.664 478.827 187.439 481.561 188.988C484.295 190.537 486.391 192.678 487.849 195.412C489.352 198.1 490.104 201.153 490.104 204.57ZM483.68 203.272C483.68 200.903 483.156 198.875 482.108 197.189C481.06 195.458 479.625 194.159 477.802 193.293C476.025 192.382 474.043 191.927 471.856 191.927C468.712 191.927 466.024 192.929 463.791 194.934C461.604 196.939 460.351 199.718 460.032 203.272H483.68ZM504.533 193.362C505.626 191.22 507.175 189.557 509.18 188.373C511.231 187.188 513.714 186.596 516.63 186.596V193.02H514.99C508.018 193.02 504.533 196.802 504.533 204.365V224.732H498.313V187.279H504.533V193.362Z" fill="black"/>
</svg>
