<svg width="821" height="1072" viewBox="0 0 821 1072" fill="none" xmlns="http://www.w3.org/2000/svg">
<circle cx="420.5" cy="408.5" r="400.5" fill="black"/>
<path d="M821 408.5C821 629.69 641.69 809 420.5 809C199.31 809 20 629.69 20 408.5C300.897 240.372 249.885 469.327 471.075 469.327C692.265 469.327 663.124 293.681 821 408.5Z" fill="#0062E7"/>
<path d="M821 408.5C821 629.69 641.69 383.212 420.5 383.212C199.31 383.212 20 629.69 20 408.5C20 187.31 199.31 8 420.5 8C641.69 8 821 187.31 821 408.5Z" fill="#328BA7" fill-opacity="0.38"/>
<g filter="url(#filter0_f)">
<path d="M409.565 408.5C409.565 629.69 641.69 809 420.5 809C199.31 809 20 629.69 20 408.5C20 187.31 199.31 8 420.5 8C641.69 8 409.565 187.31 409.565 408.5Z" fill="#5F54A0" fill-opacity="0.1"/>
</g>
<circle cx="420.5" cy="408.5" r="395.5" stroke="white" stroke-opacity="0.46" stroke-width="10"/>
<path d="M203.999 953.372H243.297V972.338H180.078V853.076H203.999V953.372ZM270.632 866.404C266.418 866.404 262.886 865.094 260.039 862.474C257.305 859.74 255.938 856.38 255.938 852.393C255.938 848.406 257.305 845.103 260.039 842.483C262.886 839.749 266.418 838.382 270.632 838.382C274.847 838.382 278.321 839.749 281.055 842.483C283.902 845.103 285.326 848.406 285.326 852.393C285.326 856.38 283.902 859.74 281.055 862.474C278.321 865.094 274.847 866.404 270.632 866.404ZM282.422 877.68V972.338H258.501V877.68H282.422ZM299.904 924.838C299.904 915.384 301.841 907.012 305.714 899.722C309.7 892.318 315.054 886.565 321.775 882.465C328.495 878.364 335.899 876.314 343.987 876.314C350.707 876.314 356.63 877.624 361.756 880.243C366.996 882.749 371.211 885.996 374.4 889.983V877.68H398.492V1017.45H374.4V959.352C371.211 963.453 366.939 966.87 361.585 969.604C356.232 972.338 350.195 973.705 343.474 973.705C335.5 973.705 328.153 971.654 321.433 967.554C314.826 963.339 309.586 957.53 305.714 950.126C301.841 942.722 299.904 934.293 299.904 924.838ZM374.4 925.009C374.4 919.2 373.204 914.188 370.812 909.973C368.42 905.759 365.287 902.569 361.415 900.405C357.656 898.241 353.612 897.159 349.283 897.159C345.069 897.159 341.025 898.241 337.152 900.405C333.393 902.569 330.318 905.759 327.926 909.973C325.534 914.074 324.338 919.029 324.338 924.838C324.338 930.648 325.534 935.717 327.926 940.045C330.318 944.26 333.393 947.449 337.152 949.613C341.025 951.778 345.069 952.86 349.283 952.86C353.612 952.86 357.656 951.778 361.415 949.613C365.287 947.449 368.42 944.26 370.812 940.045C373.204 935.83 374.4 930.818 374.4 925.009ZM511.215 877.68V972.338H487.123V960.378C484.048 964.478 480.004 967.725 474.992 970.117C470.094 972.395 464.741 973.534 458.931 973.534C451.527 973.534 444.978 971.996 439.282 968.921C433.587 965.731 429.087 961.118 425.784 955.081C422.595 948.93 421 941.64 421 933.211V877.68H444.921V929.793C444.921 937.311 446.8 943.121 450.559 947.221C454.318 951.208 459.444 953.201 465.937 953.201C472.543 953.201 477.726 951.208 481.485 947.221C485.244 943.121 487.123 937.311 487.123 929.793V877.68H511.215ZM546.948 866.404C542.733 866.404 539.202 865.094 536.354 862.474C533.62 859.74 532.254 856.38 532.254 852.393C532.254 848.406 533.62 845.103 536.354 842.483C539.202 839.749 542.733 838.382 546.948 838.382C551.162 838.382 554.636 839.749 557.37 842.483C560.218 845.103 561.642 848.406 561.642 852.393C561.642 856.38 560.218 859.74 557.37 862.474C554.636 865.094 551.162 866.404 546.948 866.404ZM558.737 877.68V972.338H534.817V877.68H558.737ZM576.22 924.667C576.22 915.099 578.099 906.613 581.858 899.209C585.731 891.805 590.971 886.11 597.578 882.123C604.184 878.136 611.531 876.143 619.619 876.143C625.77 876.143 631.636 877.51 637.217 880.243C642.799 882.863 647.241 886.394 650.545 890.837V845.9H674.807V972.338H650.545V958.327C647.583 962.997 643.425 966.756 638.072 969.604C632.718 972.452 626.51 973.876 619.448 973.876C611.474 973.876 604.184 971.825 597.578 967.725C590.971 963.624 585.731 957.872 581.858 950.468C578.099 942.95 576.22 934.35 576.22 924.667ZM650.716 925.009C650.716 919.2 649.576 914.245 647.298 910.144C645.02 905.93 641.945 902.74 638.072 900.576C634.199 898.298 630.041 897.159 625.599 897.159C621.156 897.159 617.056 898.241 613.297 900.405C609.538 902.569 606.462 905.759 604.07 909.973C601.792 914.074 600.653 918.972 600.653 924.667C600.653 930.363 601.792 935.375 604.07 939.703C606.462 943.918 609.538 947.164 613.297 949.442C617.17 951.721 621.27 952.86 625.599 952.86C630.041 952.86 634.199 951.778 638.072 949.613C641.945 947.335 645.02 944.146 647.298 940.045C649.576 935.83 650.716 930.818 650.716 925.009Z" fill="black"/>
<path d="M498.094 1013.1V1018.15H477.386V1034.21H494.199V1039.27H477.386V1060.73H471.166V1013.1H498.094ZM511.825 1010.16V1060.73H505.606V1010.16H511.825ZM555.64 1023.28V1060.73H549.421V1055.2C548.236 1057.11 546.573 1058.61 544.432 1059.71C542.336 1060.75 540.012 1061.28 537.461 1061.28C534.545 1061.28 531.925 1060.69 529.601 1059.5C527.277 1058.27 525.432 1056.45 524.065 1054.03C522.744 1051.62 522.083 1048.68 522.083 1045.22V1023.28H528.234V1044.4C528.234 1048.09 529.168 1050.94 531.036 1052.94C532.904 1054.9 535.456 1055.88 538.691 1055.88C542.017 1055.88 544.637 1054.85 546.551 1052.8C548.464 1050.75 549.421 1047.77 549.421 1043.85V1023.28H555.64ZM573.728 1028.41V1050.48C573.728 1052.3 574.115 1053.6 574.89 1054.38C575.664 1055.11 577.008 1055.47 578.922 1055.47H583.501V1060.73H577.897C574.434 1060.73 571.837 1059.93 570.106 1058.34C568.374 1056.75 567.508 1054.13 567.508 1050.48V1028.41H562.656V1023.28H567.508V1013.85H573.728V1023.28H583.501V1028.41H573.728ZM598.623 1028.41V1050.48C598.623 1052.3 599.01 1053.6 599.785 1054.38C600.559 1055.11 601.903 1055.47 603.817 1055.47H608.396V1060.73H602.792C599.329 1060.73 596.732 1059.93 595.001 1058.34C593.269 1056.75 592.404 1054.13 592.404 1050.48V1028.41H587.551V1023.28H592.404V1013.85H598.623V1023.28H608.396V1028.41H598.623ZM650.104 1040.57C650.104 1041.76 650.036 1043.01 649.899 1044.33H619.964C620.192 1048.02 621.445 1050.91 623.723 1053.01C626.047 1055.06 628.849 1056.08 632.129 1056.08C634.818 1056.08 637.05 1055.47 638.827 1054.24C640.65 1052.96 641.926 1051.28 642.655 1049.18H649.352C648.35 1052.78 646.345 1055.72 643.338 1058C640.331 1060.23 636.595 1061.35 632.129 1061.35C628.576 1061.35 625.386 1060.55 622.561 1058.96C619.782 1057.36 617.595 1055.11 616 1052.19C614.405 1049.23 613.608 1045.81 613.608 1041.94C613.608 1038.06 614.383 1034.67 615.932 1031.75C617.481 1028.84 619.645 1026.61 622.424 1025.06C625.249 1023.46 628.484 1022.66 632.129 1022.66C635.683 1022.66 638.827 1023.44 641.561 1024.99C644.295 1026.54 646.391 1028.68 647.849 1031.41C649.352 1034.1 650.104 1037.15 650.104 1040.57ZM643.68 1039.27C643.68 1036.9 643.156 1034.87 642.108 1033.19C641.06 1031.46 639.625 1030.16 637.802 1029.29C636.025 1028.38 634.043 1027.93 631.856 1027.93C628.712 1027.93 626.024 1028.93 623.791 1030.93C621.604 1032.94 620.351 1035.72 620.032 1039.27H643.68ZM664.533 1029.36C665.626 1027.22 667.175 1025.56 669.18 1024.37C671.231 1023.19 673.714 1022.6 676.63 1022.6V1029.02H674.99C668.018 1029.02 664.533 1032.8 664.533 1040.37V1060.73H658.313V1023.28H664.533V1029.36Z" fill="black"/>
<defs>
<filter id="filter0_f" x="0" y="-12" width="536.05" height="841" filterUnits="userSpaceOnUse" color-interpolation-filters="sRGB">
<feFlood flood-opacity="0" result="BackgroundImageFix"/>
<feBlend mode="normal" in="SourceGraphic" in2="BackgroundImageFix" result="shape"/>
<feGaussianBlur stdDeviation="10" result="effect1_foregroundBlur"/>
</filter>
</defs>
</svg>
